<svg width="600" height="392" xmlns="http://www.w3.org/2000/svg"> <rect width="100%" height="100%" fill="#FEFEFE" />
<line x1="70" y1="252" x2="530" y2="252" stroke="#9f9f9f" stroke-width="1" />
<rect x="70" y="87" width="460" height="165" fill="#FEFEFE" />
<text text-anchor="middle" x="300.0" y="20" font-family="'Helvetica Neue', Arial, sans-serif" font-weight="bold" font-size="22" fill="#000000">The distance between Neptune and the Sun</text>
<text text-anchor="middle" x="300.0" y="42" font-family="'Helvetica Neue', Arial, sans-serif" font-size="14" fill="#000000">correlates with</text>
<text text-anchor="middle" x="300.0" y="68" font-family="'Helvetica Neue', Arial, sans-serif" font-weight="bold" font-size="22" fill="#ba0f27">Burglary rates in the US</text>
<text text-anchor="start" x="23" y="297.3333333333333" font-family="'Helvetica Neue', Arial, sans-serif" font-size="14" fill="#9f9f9f">The average distance between Neptune and the Sun as measured on the first day of</text>
<text text-anchor="start" x="23" y="313.3333333333333" font-family="'Helvetica Neue', Arial, sans-serif" font-size="14" fill="#9f9f9f">each month &#183; Source: Caclculated using Astropy</text>
<text text-anchor="start" x="23" y="336.66666666666663" font-family="'Helvetica Neue', Arial, sans-serif" font-size="14" fill="#9f9f9f">The burglary rate per 100,000 residents in United States &#183; Source: FBI</text>
<text text-anchor="start" x="23" y="352.66666666666663" font-family="'Helvetica Neue', Arial, sans-serif" font-size="14" fill="#9f9f9f">Criminal Justice Information Services</text>
<text text-anchor="start" x="23" y="375.99999999999994" font-family="'Helvetica Neue', Arial, sans-serif" font-size="14" fill="#9f9f9f">1985-2022, r=0.969, r&#178;=0.940, p&lt;0.01  &#183;  tylervigen.com/spurious/correlation/1035</text>
<polyline points="5,292.66666666666663 20,292.66666666666663" style="fill:none;stroke:#000000;stroke-width:1.75" stroke-dasharray="3,1" />
<polygon points="3.14,292.66666666666663 5,290.8066666666666 6.859999999999999,292.66666666666663 5,294.52666666666664" stroke="#F7F7F7" stroke-width="1.55" fill="#F7F7F7"  />
<polygon points="3.14,292.66666666666663 5,290.8066666666666 6.859999999999999,292.66666666666663 5,294.52666666666664" stroke="#000000" stroke-width="1.55" fill="#000000"  />
<polyline points="5,331.99999999999994 20,331.99999999999994" style="fill:none;stroke:#ba0f27;stroke-width:1.75" />
<circle cx="5" cy="331.99999999999994" r="1.55" stroke="#F7F7F7" stroke-width="1.55" fill="#F7F7F7" />
<circle cx="5" cy="331.99999999999994" r="1.55" stroke="#ba0f27" stroke-width="1.55" fill="#ba0f27"  />
<text x="5" y="174.5" transform="rotate(270 5 169.5)" text-anchor="middle" fill="#000000" font-family="'Helvetica Neue', Arial, sans-serif" font-size="14" dominant-baseline="central">Planetary distance (AU)</text>
<text x="169.5" y="-389" transform="rotate(90 100 100)" text-anchor="middle" fill="#ba0f27" font-family="'Helvetica Neue', Arial, sans-serif" font-size="14" dominant-baseline="central">Burglary rate</text>
<line x1="71" y1="93.55" x2="528" y2="93.55" stroke="#F3F3F3" stroke-width="1" fill="#FEFEFE" />
<text text-anchor="end" x="62" y="98.21666666666667" font-family="'Helvetica Neue', Arial, sans-serif" font-size="12" fill="#000000">30.25</text>
<text text-anchor="start" x="538" y="98.21666666666667" font-family="'Helvetica Neue', Arial, sans-serif" font-size="12" fill="#ba0f27">1.3K</text>
<line x1="71" y1="131.525" x2="528" y2="131.525" stroke="#F3F3F3" stroke-width="1" fill="#FEFEFE" />
<text text-anchor="end" x="62" y="136.19166666666666" font-family="'Helvetica Neue', Arial, sans-serif" font-size="12">30.17</text>
<text text-anchor="start" x="538" y="136.19166666666666" font-family="'Helvetica Neue', Arial, sans-serif" font-size="12" fill="#ba0f27">1.1K</text>
<line x1="71" y1="169.5" x2="528" y2="169.5" stroke="#F3F3F3" stroke-width="1" fill="#FEFEFE" />
<text text-anchor="end" x="62" y="174.16666666666666" font-family="'Helvetica Neue', Arial, sans-serif" font-size="12">30.09</text>
<text text-anchor="start" x="538" y="174.16666666666666" font-family="'Helvetica Neue', Arial, sans-serif" font-size="12" fill="#ba0f27">810</text>
<line x1="71" y1="207.47500000000002" x2="528" y2="207.47500000000002" stroke="#F3F3F3" stroke-width="1" fill="#FEFEFE" />
<text text-anchor="end" x="62" y="212.14166666666668" font-family="'Helvetica Neue', Arial, sans-serif" font-size="12">30.0</text>
<text text-anchor="start" x="538" y="212.14166666666668" font-family="'Helvetica Neue', Arial, sans-serif" font-size="12" fill="#ba0f27">540</text>
<line x1="71" y1="245.45" x2="528" y2="245.45" stroke="#F3F3F3" stroke-width="1" fill="#FEFEFE" />
<text text-anchor="end" x="62" y="250.11666666666665" font-family="'Helvetica Neue', Arial, sans-serif" font-size="12">29.92</text>
<text text-anchor="start" x="538" y="250.11666666666665" font-family="'Helvetica Neue', Arial, sans-serif" font-size="12" fill="#ba0f27">270</text>
<polyline points="76.55000000000003,252 76.55000000000003,258" style="fill:none;stroke:#000000;stroke-width:1" />
<polyline points="136.9418918918919,252 136.9418918918919,258" style="fill:none;stroke:#000000;stroke-width:1" />
<polyline points="197.33378378378382,252 197.33378378378382,258" style="fill:none;stroke:#000000;stroke-width:1" />
<polyline points="257.7256756756757,252 257.7256756756757,258" style="fill:none;stroke:#000000;stroke-width:1" />
<polyline points="318.11756756756756,252 318.11756756756756,258" style="fill:none;stroke:#000000;stroke-width:1" />
<polyline points="378.50945945945944,252 378.50945945945944,258" style="fill:none;stroke:#000000;stroke-width:1" />
<polyline points="438.90135135135137,252 438.90135135135137,258" style="fill:none;stroke:#000000;stroke-width:1" />
<polyline points="499.29324324324324,252 499.29324324324324,258" style="fill:none;stroke:#000000;stroke-width:1" />
<text text-anchor="middle" x="76.55000000000003" y="273" font-weight="bold" font-family="'Helvetica Neue', Arial, sans-serif" font-size="14">1985</text>
<text text-anchor="middle" x="136.9418918918919" y="273" font-weight="bold" font-family="'Helvetica Neue', Arial, sans-serif" font-size="14">1990</text>
<text text-anchor="middle" x="197.33378378378382" y="273" font-weight="bold" font-family="'Helvetica Neue', Arial, sans-serif" font-size="14">1995</text>
<text text-anchor="middle" x="257.7256756756757" y="273" font-weight="bold" font-family="'Helvetica Neue', Arial, sans-serif" font-size="14">2000</text>
<text text-anchor="middle" x="318.11756756756756" y="273" font-weight="bold" font-family="'Helvetica Neue', Arial, sans-serif" font-size="14">2005</text>
<text text-anchor="middle" x="378.50945945945944" y="273" font-weight="bold" font-family="'Helvetica Neue', Arial, sans-serif" font-size="14">2010</text>
<text text-anchor="middle" x="438.90135135135137" y="273" font-weight="bold" font-family="'Helvetica Neue', Arial, sans-serif" font-size="14">2015</text>
<text text-anchor="middle" x="499.29324324324324" y="273" font-weight="bold" font-family="'Helvetica Neue', Arial, sans-serif" font-size="14">2020</text>
<polyline points="76.55000000000003,101.72165740740739 88.6283783783784,93.55" style="fill:none;stroke:#ba0f27;stroke-width:1.75"  />
<polyline points="88.6283783783784,93.55 100.70675675675679,95.53313888888887" style="fill:none;stroke:#ba0f27;stroke-width:1.75"  />
<polyline points="100.70675675675679,95.53313888888887 112.78513513513516,98.27577777777776" style="fill:none;stroke:#ba0f27;stroke-width:1.75"  />
<polyline points="112.78513513513516,98.27577777777776 124.86351351351354,102.86090740740741" style="fill:none;stroke:#ba0f27;stroke-width:1.75"  />
<polyline points="124.86351351351354,102.86090740740741 136.9418918918919,110.09022222222221" style="fill:none;stroke:#ba0f27;stroke-width:1.75"  />
<polyline points="136.9418918918919,110.09022222222221 149.02027027027032,107.29132407407408" style="fill:none;stroke:#ba0f27;stroke-width:1.75"  />
<polyline points="149.02027027027032,107.29132407407408 161.0986486486487,119.06357407407405" style="fill:none;stroke:#ba0f27;stroke-width:1.75"  />
<polyline points="161.0986486486487,119.06357407407405 173.17702702702707,128.72610185185184" style="fill:none;stroke:#ba0f27;stroke-width:1.75"  />
<polyline points="173.17702702702707,128.72610185185184 185.25540540540544,136.8274351851852" style="fill:none;stroke:#ba0f27;stroke-width:1.75"  />
<polyline points="185.25540540540544,136.8274351851852 197.33378378378382,144.57714814814813" style="fill:none;stroke:#ba0f27;stroke-width:1.75"  />
<polyline points="197.33378378378382,144.57714814814813 209.4121621621622,150.48437037037036" style="fill:none;stroke:#ba0f27;stroke-width:1.75"  />
<polyline points="209.4121621621622,150.48437037037036 221.49054054054056,154.1412222222222" style="fill:none;stroke:#ba0f27;stroke-width:1.75"  />
<polyline points="221.49054054054056,154.1412222222222 233.56891891891894,161.98938888888887" style="fill:none;stroke:#ba0f27;stroke-width:1.75"  />
<polyline points="233.56891891891894,161.98938888888887 245.6472972972973,175.04153703703705" style="fill:none;stroke:#ba0f27;stroke-width:1.75"  />
<polyline points="245.6472972972973,175.04153703703705 257.7256756756757,180.89249999999998" style="fill:none;stroke:#ba0f27;stroke-width:1.75"  />
<polyline points="257.7256756756757,180.89249999999998 269.80405405405406,179.06407407407409" style="fill:none;stroke:#ba0f27;stroke-width:1.75"  />
<polyline points="269.80405405405406,179.06407407407409 281.88243243243244,178.33270370370371" style="fill:none;stroke:#ba0f27;stroke-width:1.75"  />
<polyline points="281.88243243243244,178.33270370370371 293.9608108108108,179.17659259259258" style="fill:none;stroke:#ba0f27;stroke-width:1.75"  />
<polyline points="293.9608108108108,179.17659259259258 306.0391891891892,180.68152777777777" style="fill:none;stroke:#ba0f27;stroke-width:1.75"  />
<polyline points="306.0391891891892,180.68152777777777 318.11756756756756,181.1597314814815" style="fill:none;stroke:#ba0f27;stroke-width:1.75"  />
<polyline points="318.11756756756756,181.1597314814815 330.195945945946,180.28771296296296" style="fill:none;stroke:#ba0f27;stroke-width:1.75"  />
<polyline points="330.195945945946,180.28771296296296 342.2743243243243,181.27224999999999" style="fill:none;stroke:#ba0f27;stroke-width:1.75"  />
<polyline points="342.2743243243243,181.27224999999999 354.3527027027027,180.30177777777777" style="fill:none;stroke:#ba0f27;stroke-width:1.75"  />
<polyline points="354.3527027027027,180.30177777777777 366.4310810810811,182.45369444444444" style="fill:none;stroke:#ba0f27;stroke-width:1.75"  />
<polyline points="366.4310810810811,182.45369444444444 378.5094594594595,184.80251851851853" style="fill:none;stroke:#ba0f27;stroke-width:1.75"  />
<polyline points="378.5094594594595,184.80251851851853 390.58783783783787,184.76032407407408" style="fill:none;stroke:#ba0f27;stroke-width:1.75"  />
<polyline points="390.58783783783787,184.76032407407408 402.66621621621624,188.85318518518517" style="fill:none;stroke:#ba0f27;stroke-width:1.75"  />
<polyline points="402.66621621621624,188.85318518518517 414.7445945945946,197.53117592592594" style="fill:none;stroke:#ba0f27;stroke-width:1.75"  />
<polyline points="414.7445945945946,197.53117592592594 426.822972972973,207.84068518518518" style="fill:none;stroke:#ba0f27;stroke-width:1.75"  />
<polyline points="426.822972972973,207.84068518518518 438.90135135135137,213.81823148148146" style="fill:none;stroke:#ba0f27;stroke-width:1.75"  />
<polyline points="438.90135135135137,213.81823148148146 450.97972972972974,217.4469537037037" style="fill:none;stroke:#ba0f27;stroke-width:1.75"  />
<polyline points="450.97972972972974,217.4469537037037 463.0581081081081,222.96036111111113" style="fill:none;stroke:#ba0f27;stroke-width:1.75"  />
<polyline points="463.0581081081081,222.96036111111113 475.1364864864865,230.23187037037036" style="fill:none;stroke:#ba0f27;stroke-width:1.75"  />
<polyline points="475.1364864864865,230.23187037037036 487.21486486486486,235.5061759259259" style="fill:none;stroke:#ba0f27;stroke-width:1.75"  />
<polyline points="487.21486486486486,235.5061759259259 499.29324324324324,239.20522222222223" style="fill:none;stroke:#ba0f27;stroke-width:1.75"  />
<polyline points="499.29324324324324,239.20522222222223 511.3716216216216,245.29528703703704" style="fill:none;stroke:#ba0f27;stroke-width:1.75"  />
<polyline points="511.3716216216216,245.29528703703704 523.45,245.45" style="fill:none;stroke:#ba0f27;stroke-width:1.75"  />
<circle cx="76.55000000000003" cy="101.72165740740739" r="1.55" stroke="#F7F7F7" stroke-width="1.55" fill="#F7F7F7" />
<circle cx="76.55000000000003" cy="101.72165740740739" r="1.55" stroke="#ba0f27" stroke-width="1.55" fill="#ba0f27"  />
<circle cx="88.6283783783784" cy="93.55" r="1.55" stroke="#F7F7F7" stroke-width="1.55" fill="#F7F7F7" />
<circle cx="88.6283783783784" cy="93.55" r="1.55" stroke="#ba0f27" stroke-width="1.55" fill="#ba0f27"  />
<circle cx="100.70675675675679" cy="95.53313888888887" r="1.55" stroke="#F7F7F7" stroke-width="1.55" fill="#F7F7F7" />
<circle cx="100.70675675675679" cy="95.53313888888887" r="1.55" stroke="#ba0f27" stroke-width="1.55" fill="#ba0f27"  />
<circle cx="112.78513513513516" cy="98.27577777777776" r="1.55" stroke="#F7F7F7" stroke-width="1.55" fill="#F7F7F7" />
<circle cx="112.78513513513516" cy="98.27577777777776" r="1.55" stroke="#ba0f27" stroke-width="1.55" fill="#ba0f27"  />
<circle cx="124.86351351351354" cy="102.86090740740741" r="1.55" stroke="#F7F7F7" stroke-width="1.55" fill="#F7F7F7" />
<circle cx="124.86351351351354" cy="102.86090740740741" r="1.55" stroke="#ba0f27" stroke-width="1.55" fill="#ba0f27"  />
<circle cx="136.9418918918919" cy="110.09022222222221" r="1.55" stroke="#F7F7F7" stroke-width="1.55" fill="#F7F7F7" />
<circle cx="136.9418918918919" cy="110.09022222222221" r="1.55" stroke="#ba0f27" stroke-width="1.55" fill="#ba0f27"  />
<circle cx="149.02027027027032" cy="107.29132407407408" r="1.55" stroke="#F7F7F7" stroke-width="1.55" fill="#F7F7F7" />
<circle cx="149.02027027027032" cy="107.29132407407408" r="1.55" stroke="#ba0f27" stroke-width="1.55" fill="#ba0f27"  />
<circle cx="161.0986486486487" cy="119.06357407407405" r="1.55" stroke="#F7F7F7" stroke-width="1.55" fill="#F7F7F7" />
<circle cx="161.0986486486487" cy="119.06357407407405" r="1.55" stroke="#ba0f27" stroke-width="1.55" fill="#ba0f27"  />
<circle cx="173.17702702702707" cy="128.72610185185184" r="1.55" stroke="#F7F7F7" stroke-width="1.55" fill="#F7F7F7" />
<circle cx="173.17702702702707" cy="128.72610185185184" r="1.55" stroke="#ba0f27" stroke-width="1.55" fill="#ba0f27"  />
<circle cx="185.25540540540544" cy="136.8274351851852" r="1.55" stroke="#F7F7F7" stroke-width="1.55" fill="#F7F7F7" />
<circle cx="185.25540540540544" cy="136.8274351851852" r="1.55" stroke="#ba0f27" stroke-width="1.55" fill="#ba0f27"  />
<circle cx="197.33378378378382" cy="144.57714814814813" r="1.55" stroke="#F7F7F7" stroke-width="1.55" fill="#F7F7F7" />
<circle cx="197.33378378378382" cy="144.57714814814813" r="1.55" stroke="#ba0f27" stroke-width="1.55" fill="#ba0f27"  />
<circle cx="209.4121621621622" cy="150.48437037037036" r="1.55" stroke="#F7F7F7" stroke-width="1.55" fill="#F7F7F7" />
<circle cx="209.4121621621622" cy="150.48437037037036" r="1.55" stroke="#ba0f27" stroke-width="1.55" fill="#ba0f27"  />
<circle cx="221.49054054054056" cy="154.1412222222222" r="1.55" stroke="#F7F7F7" stroke-width="1.55" fill="#F7F7F7" />
<circle cx="221.49054054054056" cy="154.1412222222222" r="1.55" stroke="#ba0f27" stroke-width="1.55" fill="#ba0f27"  />
<circle cx="233.56891891891894" cy="161.98938888888887" r="1.55" stroke="#F7F7F7" stroke-width="1.55" fill="#F7F7F7" />
<circle cx="233.56891891891894" cy="161.98938888888887" r="1.55" stroke="#ba0f27" stroke-width="1.55" fill="#ba0f27"  />
<circle cx="245.6472972972973" cy="175.04153703703705" r="1.55" stroke="#F7F7F7" stroke-width="1.55" fill="#F7F7F7" />
<circle cx="245.6472972972973" cy="175.04153703703705" r="1.55" stroke="#ba0f27" stroke-width="1.55" fill="#ba0f27"  />
<circle cx="257.7256756756757" cy="180.89249999999998" r="1.55" stroke="#F7F7F7" stroke-width="1.55" fill="#F7F7F7" />
<circle cx="257.7256756756757" cy="180.89249999999998" r="1.55" stroke="#ba0f27" stroke-width="1.55" fill="#ba0f27"  />
<circle cx="269.80405405405406" cy="179.06407407407409" r="1.55" stroke="#F7F7F7" stroke-width="1.55" fill="#F7F7F7" />
<circle cx="269.80405405405406" cy="179.06407407407409" r="1.55" stroke="#ba0f27" stroke-width="1.55" fill="#ba0f27"  />
<circle cx="281.88243243243244" cy="178.33270370370371" r="1.55" stroke="#F7F7F7" stroke-width="1.55" fill="#F7F7F7" />
<circle cx="281.88243243243244" cy="178.33270370370371" r="1.55" stroke="#ba0f27" stroke-width="1.55" fill="#ba0f27"  />
<circle cx="293.9608108108108" cy="179.17659259259258" r="1.55" stroke="#F7F7F7" stroke-width="1.55" fill="#F7F7F7" />
<circle cx="293.9608108108108" cy="179.17659259259258" r="1.55" stroke="#ba0f27" stroke-width="1.55" fill="#ba0f27"  />
<circle cx="306.0391891891892" cy="180.68152777777777" r="1.55" stroke="#F7F7F7" stroke-width="1.55" fill="#F7F7F7" />
<circle cx="306.0391891891892" cy="180.68152777777777" r="1.55" stroke="#ba0f27" stroke-width="1.55" fill="#ba0f27"  />
<circle cx="318.11756756756756" cy="181.1597314814815" r="1.55" stroke="#F7F7F7" stroke-width="1.55" fill="#F7F7F7" />
<circle cx="318.11756756756756" cy="181.1597314814815" r="1.55" stroke="#ba0f27" stroke-width="1.55" fill="#ba0f27"  />
<circle cx="330.195945945946" cy="180.28771296296296" r="1.55" stroke="#F7F7F7" stroke-width="1.55" fill="#F7F7F7" />
<circle cx="330.195945945946" cy="180.28771296296296" r="1.55" stroke="#ba0f27" stroke-width="1.55" fill="#ba0f27"  />
<circle cx="342.2743243243243" cy="181.27224999999999" r="1.55" stroke="#F7F7F7" stroke-width="1.55" fill="#F7F7F7" />
<circle cx="342.2743243243243" cy="181.27224999999999" r="1.55" stroke="#ba0f27" stroke-width="1.55" fill="#ba0f27"  />
<circle cx="354.3527027027027" cy="180.30177777777777" r="1.55" stroke="#F7F7F7" stroke-width="1.55" fill="#F7F7F7" />
<circle cx="354.3527027027027" cy="180.30177777777777" r="1.55" stroke="#ba0f27" stroke-width="1.55" fill="#ba0f27"  />
<circle cx="366.4310810810811" cy="182.45369444444444" r="1.55" stroke="#F7F7F7" stroke-width="1.55" fill="#F7F7F7" />
<circle cx="366.4310810810811" cy="182.45369444444444" r="1.55" stroke="#ba0f27" stroke-width="1.55" fill="#ba0f27"  />
<circle cx="378.5094594594595" cy="184.80251851851853" r="1.55" stroke="#F7F7F7" stroke-width="1.55" fill="#F7F7F7" />
<circle cx="378.5094594594595" cy="184.80251851851853" r="1.55" stroke="#ba0f27" stroke-width="1.55" fill="#ba0f27"  />
<circle cx="390.58783783783787" cy="184.76032407407408" r="1.55" stroke="#F7F7F7" stroke-width="1.55" fill="#F7F7F7" />
<circle cx="390.58783783783787" cy="184.76032407407408" r="1.55" stroke="#ba0f27" stroke-width="1.55" fill="#ba0f27"  />
<circle cx="402.66621621621624" cy="188.85318518518517" r="1.55" stroke="#F7F7F7" stroke-width="1.55" fill="#F7F7F7" />
<circle cx="402.66621621621624" cy="188.85318518518517" r="1.55" stroke="#ba0f27" stroke-width="1.55" fill="#ba0f27"  />
<circle cx="414.7445945945946" cy="197.53117592592594" r="1.55" stroke="#F7F7F7" stroke-width="1.55" fill="#F7F7F7" />
<circle cx="414.7445945945946" cy="197.53117592592594" r="1.55" stroke="#ba0f27" stroke-width="1.55" fill="#ba0f27"  />
<circle cx="426.822972972973" cy="207.84068518518518" r="1.55" stroke="#F7F7F7" stroke-width="1.55" fill="#F7F7F7" />
<circle cx="426.822972972973" cy="207.84068518518518" r="1.55" stroke="#ba0f27" stroke-width="1.55" fill="#ba0f27"  />
<circle cx="438.90135135135137" cy="213.81823148148146" r="1.55" stroke="#F7F7F7" stroke-width="1.55" fill="#F7F7F7" />
<circle cx="438.90135135135137" cy="213.81823148148146" r="1.55" stroke="#ba0f27" stroke-width="1.55" fill="#ba0f27"  />
<circle cx="450.97972972972974" cy="217.4469537037037" r="1.55" stroke="#F7F7F7" stroke-width="1.55" fill="#F7F7F7" />
<circle cx="450.97972972972974" cy="217.4469537037037" r="1.55" stroke="#ba0f27" stroke-width="1.55" fill="#ba0f27"  />
<circle cx="463.0581081081081" cy="222.96036111111113" r="1.55" stroke="#F7F7F7" stroke-width="1.55" fill="#F7F7F7" />
<circle cx="463.0581081081081" cy="222.96036111111113" r="1.55" stroke="#ba0f27" stroke-width="1.55" fill="#ba0f27"  />
<circle cx="475.1364864864865" cy="230.23187037037036" r="1.55" stroke="#F7F7F7" stroke-width="1.55" fill="#F7F7F7" />
<circle cx="475.1364864864865" cy="230.23187037037036" r="1.55" stroke="#ba0f27" stroke-width="1.55" fill="#ba0f27"  />
<circle cx="487.21486486486486" cy="235.5061759259259" r="1.55" stroke="#F7F7F7" stroke-width="1.55" fill="#F7F7F7" />
<circle cx="487.21486486486486" cy="235.5061759259259" r="1.55" stroke="#ba0f27" stroke-width="1.55" fill="#ba0f27"  />
<circle cx="499.29324324324324" cy="239.20522222222223" r="1.55" stroke="#F7F7F7" stroke-width="1.55" fill="#F7F7F7" />
<circle cx="499.29324324324324" cy="239.20522222222223" r="1.55" stroke="#ba0f27" stroke-width="1.55" fill="#ba0f27"  />
<circle cx="511.3716216216216" cy="245.29528703703704" r="1.55" stroke="#F7F7F7" stroke-width="1.55" fill="#F7F7F7" />
<circle cx="511.3716216216216" cy="245.29528703703704" r="1.55" stroke="#ba0f27" stroke-width="1.55" fill="#ba0f27"  />
<circle cx="523.45" cy="245.45" r="1.55" stroke="#F7F7F7" stroke-width="1.55" fill="#F7F7F7" />
<circle cx="523.45" cy="245.45" r="1.55" stroke="#ba0f27" stroke-width="1.55" fill="#ba0f27"  />
<polyline points="76.55000000000003,93.55 88.6283783783784,97.61753942279101" style="fill:none;stroke:#000000;stroke-width:1.75" stroke-dasharray="3,1"  />
<polyline points="88.6283783783784,97.61753942279101 100.70675675675679,102.04663790538481" style="fill:none;stroke:#000000;stroke-width:1.75" stroke-dasharray="3,1"  />
<polyline points="100.70675675675679,102.04663790538481 112.78513513513516,106.52093127045556" style="fill:none;stroke:#000000;stroke-width:1.75" stroke-dasharray="3,1"  />
<polyline points="112.78513513513516,106.52093127045556 124.86351351351354,110.85963998809866" style="fill:none;stroke:#000000;stroke-width:1.75" stroke-dasharray="3,1"  />
<polyline points="124.86351351351354,110.85963998809866 136.9418918918919,114.83678964593898" style="fill:none;stroke:#000000;stroke-width:1.75" stroke-dasharray="3,1"  />
<polyline points="136.9418918918919,114.83678964593898 149.02027027027032,118.40718536149956" style="fill:none;stroke:#000000;stroke-width:1.75" stroke-dasharray="3,1"  />
<polyline points="149.02027027027032,118.40718536149956 161.0986486486487,121.70641178220802" style="fill:none;stroke:#000000;stroke-width:1.75" stroke-dasharray="3,1"  />
<polyline points="161.0986486486487,121.70641178220802 173.17702702702707,124.77966379053817" style="fill:none;stroke:#000000;stroke-width:1.75" stroke-dasharray="3,1"  />
<polyline points="173.17702702702707,124.77966379053817 185.25540540540544,127.94330556382059" style="fill:none;stroke:#000000;stroke-width:1.75" stroke-dasharray="3,1"  />
<polyline points="185.25540540540544,127.94330556382059 197.33378378378382,131.37811663195512" style="fill:none;stroke:#000000;stroke-width:1.75" stroke-dasharray="3,1"  />
<polyline points="197.33378378378382,131.37811663195512 209.4121621621622,135.35526628979383" style="fill:none;stroke:#000000;stroke-width:1.75" stroke-dasharray="3,1"  />
<polyline points="209.4121621621622,135.35526628979383 221.49054054054056,139.91994941981528" style="fill:none;stroke:#000000;stroke-width:1.75" stroke-dasharray="3,1"  />
<polyline points="221.49054054054056,139.91994941981528 233.56891891891894,145.0269711395409" style="fill:none;stroke:#000000;stroke-width:1.75" stroke-dasharray="3,1"  />
<polyline points="233.56891891891894,145.0269711395409 245.6472972972973,150.58594168402163" style="fill:none;stroke:#000000;stroke-width:1.75" stroke-dasharray="3,1"  />
<polyline points="245.6472972972973,150.58594168402163 257.7256756756757,156.28049687593003" style="fill:none;stroke:#000000;stroke-width:1.75" stroke-dasharray="3,1"  />
<polyline points="257.7256756756757,156.28049687593003 269.80405405405406,161.83946742041076" style="fill:none;stroke:#000000;stroke-width:1.75" stroke-dasharray="3,1"  />
<polyline points="269.80405405405406,161.83946742041076 281.88243243243244,167.08207378756242" style="fill:none;stroke:#000000;stroke-width:1.75" stroke-dasharray="3,1"  />
<polyline points="281.88243243243244,167.08207378756242 293.9608108108108,171.82753644748527" style="fill:none;stroke:#000000;stroke-width:1.75" stroke-dasharray="3,1"  />
<polyline points="293.9608108108108,171.82753644748527 306.0391891891892,176.03066051770233" style="fill:none;stroke:#000000;stroke-width:1.75" stroke-dasharray="3,1"  />
<polyline points="306.0391891891892,176.03066051770233 318.11756756756756,179.7818357631659" style="fill:none;stroke:#000000;stroke-width:1.75" stroke-dasharray="3,1"  />
<polyline points="318.11756756756756,179.7818357631659 330.195945945946,183.26184171377577" style="fill:none;stroke:#000000;stroke-width:1.75" stroke-dasharray="3,1"  />
<polyline points="330.195945945946,183.26184171377577 342.2743243243243,186.74184766438566" style="fill:none;stroke:#000000;stroke-width:1.75" stroke-dasharray="3,1"  />
<polyline points="342.2743243243243,186.74184766438566 354.3527027027027,190.44782802737228" style="fill:none;stroke:#000000;stroke-width:1.75" stroke-dasharray="3,1"  />
<polyline points="354.3527027027027,190.44782802737228 366.4310810810811,194.51536745016327" style="fill:none;stroke:#000000;stroke-width:1.75" stroke-dasharray="3,1"  />
<polyline points="366.4310810810811,194.51536745016327 378.5094594594595,199.08005058018472" style="fill:none;stroke:#000000;stroke-width:1.75" stroke-dasharray="3,1"  />
<polyline points="378.5094594594595,199.08005058018472 390.58783783783787,204.00629277000897" style="fill:none;stroke:#000000;stroke-width:1.75" stroke-dasharray="3,1"  />
<polyline points="390.58783783783787,204.00629277000897 402.66621621621624,209.2037042546869" style="fill:none;stroke:#000000;stroke-width:1.75" stroke-dasharray="3,1"  />
<polyline points="402.66621621621624,209.2037042546869 414.7445945945946,214.40111573936323" style="fill:none;stroke:#000000;stroke-width:1.75" stroke-dasharray="3,1"  />
<polyline points="414.7445945945946,214.40111573936323 426.822972972973,219.37255281166284" style="fill:none;stroke:#000000;stroke-width:1.75" stroke-dasharray="3,1"  />
<polyline points="426.822972972973,219.37255281166284 438.90135135135137,223.8468461767336" style="fill:none;stroke:#000000;stroke-width:1.75" stroke-dasharray="3,1"  />
<polyline points="438.90135135135137,223.8468461767336 450.97972972972974,227.77880095209855" style="fill:none;stroke:#000000;stroke-width:1.75" stroke-dasharray="3,1"  />
<polyline points="450.97972972972974,227.77880095209855 463.0581081081081,231.12322225528078" style="fill:none;stroke:#000000;stroke-width:1.75" stroke-dasharray="3,1"  />
<polyline points="463.0581081081081,231.12322225528078 475.1364864864865,234.0156947337111" style="fill:none;stroke:#000000;stroke-width:1.75" stroke-dasharray="3,1"  />
<polyline points="475.1364864864865,234.0156947337111 487.21486486486486,236.63699791728612" style="fill:none;stroke:#000000;stroke-width:1.75" stroke-dasharray="3,1"  />
<polyline points="487.21486486486486,236.63699791728612 499.29324324324324,239.3034959833381" style="fill:none;stroke:#000000;stroke-width:1.75" stroke-dasharray="3,1"  />
<polyline points="499.29324324324324,239.3034959833381 511.3716216216216,242.19596846176688" style="fill:none;stroke:#000000;stroke-width:1.75" stroke-dasharray="3,1"  />
<polyline points="511.3716216216216,242.19596846176688 523.45,245.45" style="fill:none;stroke:#000000;stroke-width:1.75" stroke-dasharray="3,1"  />
<polygon points="74.69000000000003,93.55 76.55000000000003,91.69 78.41000000000003,93.55 76.55000000000003,95.41" stroke="#F7F7F7" stroke-width="1.55" fill="#F7F7F7"  />
<polygon points="74.69000000000003,93.55 76.55000000000003,91.69 78.41000000000003,93.55 76.55000000000003,95.41" stroke="#000000" stroke-width="1.55" fill="#000000"  />
<polygon points="86.7683783783784,97.61753942279101 88.6283783783784,95.75753942279101 90.4883783783784,97.61753942279101 88.6283783783784,99.47753942279101" stroke="#F7F7F7" stroke-width="1.55" fill="#F7F7F7"  />
<polygon points="86.7683783783784,97.61753942279101 88.6283783783784,95.75753942279101 90.4883783783784,97.61753942279101 88.6283783783784,99.47753942279101" stroke="#000000" stroke-width="1.55" fill="#000000"  />
<polygon points="98.84675675675679,102.04663790538481 100.70675675675679,100.18663790538481 102.56675675675679,102.04663790538481 100.70675675675679,103.90663790538481" stroke="#F7F7F7" stroke-width="1.55" fill="#F7F7F7"  />
<polygon points="98.84675675675679,102.04663790538481 100.70675675675679,100.18663790538481 102.56675675675679,102.04663790538481 100.70675675675679,103.90663790538481" stroke="#000000" stroke-width="1.55" fill="#000000"  />
<polygon points="110.92513513513516,106.52093127045556 112.78513513513516,104.66093127045556 114.64513513513516,106.52093127045556 112.78513513513516,108.38093127045556" stroke="#F7F7F7" stroke-width="1.55" fill="#F7F7F7"  />
<polygon points="110.92513513513516,106.52093127045556 112.78513513513516,104.66093127045556 114.64513513513516,106.52093127045556 112.78513513513516,108.38093127045556" stroke="#000000" stroke-width="1.55" fill="#000000"  />
<polygon points="123.00351351351354,110.85963998809866 124.86351351351354,108.99963998809866 126.72351351351354,110.85963998809866 124.86351351351354,112.71963998809866" stroke="#F7F7F7" stroke-width="1.55" fill="#F7F7F7"  />
<polygon points="123.00351351351354,110.85963998809866 124.86351351351354,108.99963998809866 126.72351351351354,110.85963998809866 124.86351351351354,112.71963998809866" stroke="#000000" stroke-width="1.55" fill="#000000"  />
<polygon points="135.0818918918919,114.83678964593898 136.9418918918919,112.97678964593898 138.80189189189193,114.83678964593898 136.9418918918919,116.69678964593898" stroke="#F7F7F7" stroke-width="1.55" fill="#F7F7F7"  />
<polygon points="135.0818918918919,114.83678964593898 136.9418918918919,112.97678964593898 138.80189189189193,114.83678964593898 136.9418918918919,116.69678964593898" stroke="#000000" stroke-width="1.55" fill="#000000"  />
<polygon points="147.1602702702703,118.40718536149956 149.02027027027032,116.54718536149956 150.88027027027033,118.40718536149956 149.02027027027032,120.26718536149956" stroke="#F7F7F7" stroke-width="1.55" fill="#F7F7F7"  />
<polygon points="147.1602702702703,118.40718536149956 149.02027027027032,116.54718536149956 150.88027027027033,118.40718536149956 149.02027027027032,120.26718536149956" stroke="#000000" stroke-width="1.55" fill="#000000"  />
<polygon points="159.23864864864868,121.70641178220802 161.0986486486487,119.84641178220802 162.9586486486487,121.70641178220802 161.0986486486487,123.56641178220802" stroke="#F7F7F7" stroke-width="1.55" fill="#F7F7F7"  />
<polygon points="159.23864864864868,121.70641178220802 161.0986486486487,119.84641178220802 162.9586486486487,121.70641178220802 161.0986486486487,123.56641178220802" stroke="#000000" stroke-width="1.55" fill="#000000"  />
<polygon points="171.31702702702705,124.77966379053817 173.17702702702707,122.91966379053817 175.03702702702708,124.77966379053817 173.17702702702707,126.63966379053817" stroke="#F7F7F7" stroke-width="1.55" fill="#F7F7F7"  />
<polygon points="171.31702702702705,124.77966379053817 173.17702702702707,122.91966379053817 175.03702702702708,124.77966379053817 173.17702702702707,126.63966379053817" stroke="#000000" stroke-width="1.55" fill="#000000"  />
<polygon points="183.39540540540543,127.94330556382059 185.25540540540544,126.08330556382059 187.11540540540545,127.94330556382059 185.25540540540544,129.8033055638206" stroke="#F7F7F7" stroke-width="1.55" fill="#F7F7F7"  />
<polygon points="183.39540540540543,127.94330556382059 185.25540540540544,126.08330556382059 187.11540540540545,127.94330556382059 185.25540540540544,129.8033055638206" stroke="#000000" stroke-width="1.55" fill="#000000"  />
<polygon points="195.4737837837838,131.37811663195512 197.33378378378382,129.5181166319551 199.19378378378383,131.37811663195512 197.33378378378382,133.23811663195514" stroke="#F7F7F7" stroke-width="1.55" fill="#F7F7F7"  />
<polygon points="195.4737837837838,131.37811663195512 197.33378378378382,129.5181166319551 199.19378378378383,131.37811663195512 197.33378378378382,133.23811663195514" stroke="#000000" stroke-width="1.55" fill="#000000"  />
<polygon points="207.55216216216218,135.35526628979383 209.4121621621622,133.49526628979382 211.2721621621622,135.35526628979383 209.4121621621622,137.21526628979385" stroke="#F7F7F7" stroke-width="1.55" fill="#F7F7F7"  />
<polygon points="207.55216216216218,135.35526628979383 209.4121621621622,133.49526628979382 211.2721621621622,135.35526628979383 209.4121621621622,137.21526628979385" stroke="#000000" stroke-width="1.55" fill="#000000"  />
<polygon points="219.63054054054055,139.91994941981528 221.49054054054056,138.05994941981527 223.35054054054058,139.91994941981528 221.49054054054056,141.7799494198153" stroke="#F7F7F7" stroke-width="1.55" fill="#F7F7F7"  />
<polygon points="219.63054054054055,139.91994941981528 221.49054054054056,138.05994941981527 223.35054054054058,139.91994941981528 221.49054054054056,141.7799494198153" stroke="#000000" stroke-width="1.55" fill="#000000"  />
<polygon points="231.70891891891893,145.0269711395409 233.56891891891894,143.1669711395409 235.42891891891895,145.0269711395409 233.56891891891894,146.88697113954092" stroke="#F7F7F7" stroke-width="1.55" fill="#F7F7F7"  />
<polygon points="231.70891891891893,145.0269711395409 233.56891891891894,143.1669711395409 235.42891891891895,145.0269711395409 233.56891891891894,146.88697113954092" stroke="#000000" stroke-width="1.55" fill="#000000"  />
<polygon points="243.7872972972973,150.58594168402163 245.6472972972973,148.72594168402162 247.50729729729733,150.58594168402163 245.6472972972973,152.44594168402165" stroke="#F7F7F7" stroke-width="1.55" fill="#F7F7F7"  />
<polygon points="243.7872972972973,150.58594168402163 245.6472972972973,148.72594168402162 247.50729729729733,150.58594168402163 245.6472972972973,152.44594168402165" stroke="#000000" stroke-width="1.55" fill="#000000"  />
<polygon points="255.86567567567567,156.28049687593003 257.7256756756757,154.42049687593 259.5856756756757,156.28049687593003 257.7256756756757,158.14049687593004" stroke="#F7F7F7" stroke-width="1.55" fill="#F7F7F7"  />
<polygon points="255.86567567567567,156.28049687593003 257.7256756756757,154.42049687593 259.5856756756757,156.28049687593003 257.7256756756757,158.14049687593004" stroke="#000000" stroke-width="1.55" fill="#000000"  />
<polygon points="267.94405405405405,161.83946742041076 269.80405405405406,159.97946742041074 271.6640540540541,161.83946742041076 269.80405405405406,163.69946742041077" stroke="#F7F7F7" stroke-width="1.55" fill="#F7F7F7"  />
<polygon points="267.94405405405405,161.83946742041076 269.80405405405406,159.97946742041074 271.6640540540541,161.83946742041076 269.80405405405406,163.69946742041077" stroke="#000000" stroke-width="1.55" fill="#000000"  />
<polygon points="280.0224324324324,167.08207378756242 281.88243243243244,165.2220737875624 283.74243243243245,167.08207378756242 281.88243243243244,168.94207378756244" stroke="#F7F7F7" stroke-width="1.55" fill="#F7F7F7"  />
<polygon points="280.0224324324324,167.08207378756242 281.88243243243244,165.2220737875624 283.74243243243245,167.08207378756242 281.88243243243244,168.94207378756244" stroke="#000000" stroke-width="1.55" fill="#000000"  />
<polygon points="292.1008108108108,171.82753644748527 293.9608108108108,169.96753644748526 295.8208108108108,171.82753644748527 293.9608108108108,173.6875364474853" stroke="#F7F7F7" stroke-width="1.55" fill="#F7F7F7"  />
<polygon points="292.1008108108108,171.82753644748527 293.9608108108108,169.96753644748526 295.8208108108108,171.82753644748527 293.9608108108108,173.6875364474853" stroke="#000000" stroke-width="1.55" fill="#000000"  />
<polygon points="304.1791891891892,176.03066051770233 306.0391891891892,174.17066051770232 307.8991891891892,176.03066051770233 306.0391891891892,177.89066051770234" stroke="#F7F7F7" stroke-width="1.55" fill="#F7F7F7"  />
<polygon points="304.1791891891892,176.03066051770233 306.0391891891892,174.17066051770232 307.8991891891892,176.03066051770233 306.0391891891892,177.89066051770234" stroke="#000000" stroke-width="1.55" fill="#000000"  />
<polygon points="316.25756756756755,179.7818357631659 318.11756756756756,177.9218357631659 319.9775675675676,179.7818357631659 318.11756756756756,181.64183576316591" stroke="#F7F7F7" stroke-width="1.55" fill="#F7F7F7"  />
<polygon points="316.25756756756755,179.7818357631659 318.11756756756756,177.9218357631659 319.9775675675676,179.7818357631659 318.11756756756756,181.64183576316591" stroke="#000000" stroke-width="1.55" fill="#000000"  />
<polygon points="328.335945945946,183.26184171377577 330.195945945946,181.40184171377575 332.055945945946,183.26184171377577 330.195945945946,185.12184171377578" stroke="#F7F7F7" stroke-width="1.55" fill="#F7F7F7"  />
<polygon points="328.335945945946,183.26184171377577 330.195945945946,181.40184171377575 332.055945945946,183.26184171377577 330.195945945946,185.12184171377578" stroke="#000000" stroke-width="1.55" fill="#000000"  />
<polygon points="340.4143243243243,186.74184766438566 342.2743243243243,184.88184766438565 344.1343243243243,186.74184766438566 342.2743243243243,188.60184766438567" stroke="#F7F7F7" stroke-width="1.55" fill="#F7F7F7"  />
<polygon points="340.4143243243243,186.74184766438566 342.2743243243243,184.88184766438565 344.1343243243243,186.74184766438566 342.2743243243243,188.60184766438567" stroke="#000000" stroke-width="1.55" fill="#000000"  />
<polygon points="352.4927027027027,190.44782802737228 354.3527027027027,188.58782802737227 356.2127027027027,190.44782802737228 354.3527027027027,192.3078280273723" stroke="#F7F7F7" stroke-width="1.55" fill="#F7F7F7"  />
<polygon points="352.4927027027027,190.44782802737228 354.3527027027027,188.58782802737227 356.2127027027027,190.44782802737228 354.3527027027027,192.3078280273723" stroke="#000000" stroke-width="1.55" fill="#000000"  />
<polygon points="364.5710810810811,194.51536745016327 366.4310810810811,192.65536745016325 368.29108108108113,194.51536745016327 366.4310810810811,196.37536745016328" stroke="#F7F7F7" stroke-width="1.55" fill="#F7F7F7"  />
<polygon points="364.5710810810811,194.51536745016327 366.4310810810811,192.65536745016325 368.29108108108113,194.51536745016327 366.4310810810811,196.37536745016328" stroke="#000000" stroke-width="1.55" fill="#000000"  />
<polygon points="376.6494594594595,199.08005058018472 378.5094594594595,197.2200505801847 380.3694594594595,199.08005058018472 378.5094594594595,200.94005058018473" stroke="#F7F7F7" stroke-width="1.55" fill="#F7F7F7"  />
<polygon points="376.6494594594595,199.08005058018472 378.5094594594595,197.2200505801847 380.3694594594595,199.08005058018472 378.5094594594595,200.94005058018473" stroke="#000000" stroke-width="1.55" fill="#000000"  />
<polygon points="388.72783783783785,204.00629277000897 390.58783783783787,202.14629277000896 392.4478378378379,204.00629277000897 390.58783783783787,205.86629277000898" stroke="#F7F7F7" stroke-width="1.55" fill="#F7F7F7"  />
<polygon points="388.72783783783785,204.00629277000897 390.58783783783787,202.14629277000896 392.4478378378379,204.00629277000897 390.58783783783787,205.86629277000898" stroke="#000000" stroke-width="1.55" fill="#000000"  />
<polygon points="400.8062162162162,209.2037042546869 402.66621621621624,207.34370425468688 404.52621621621626,209.2037042546869 402.66621621621624,211.0637042546869" stroke="#F7F7F7" stroke-width="1.55" fill="#F7F7F7"  />
<polygon points="400.8062162162162,209.2037042546869 402.66621621621624,207.34370425468688 404.52621621621626,209.2037042546869 402.66621621621624,211.0637042546869" stroke="#000000" stroke-width="1.55" fill="#000000"  />
<polygon points="412.8845945945946,214.40111573936323 414.7445945945946,212.54111573936322 416.60459459459463,214.40111573936323 414.7445945945946,216.26111573936325" stroke="#F7F7F7" stroke-width="1.55" fill="#F7F7F7"  />
<polygon points="412.8845945945946,214.40111573936323 414.7445945945946,212.54111573936322 416.60459459459463,214.40111573936323 414.7445945945946,216.26111573936325" stroke="#000000" stroke-width="1.55" fill="#000000"  />
<polygon points="424.962972972973,219.37255281166284 426.822972972973,217.51255281166283 428.682972972973,219.37255281166284 426.822972972973,221.23255281166286" stroke="#F7F7F7" stroke-width="1.55" fill="#F7F7F7"  />
<polygon points="424.962972972973,219.37255281166284 426.822972972973,217.51255281166283 428.682972972973,219.37255281166284 426.822972972973,221.23255281166286" stroke="#000000" stroke-width="1.55" fill="#000000"  />
<polygon points="437.04135135135135,223.8468461767336 438.90135135135137,221.9868461767336 440.7613513513514,223.8468461767336 438.90135135135137,225.70684617673362" stroke="#F7F7F7" stroke-width="1.55" fill="#F7F7F7"  />
<polygon points="437.04135135135135,223.8468461767336 438.90135135135137,221.9868461767336 440.7613513513514,223.8468461767336 438.90135135135137,225.70684617673362" stroke="#000000" stroke-width="1.55" fill="#000000"  />
<polygon points="449.1197297297297,227.77880095209855 450.97972972972974,225.91880095209854 452.83972972972975,227.77880095209855 450.97972972972974,229.63880095209856" stroke="#F7F7F7" stroke-width="1.55" fill="#F7F7F7"  />
<polygon points="449.1197297297297,227.77880095209855 450.97972972972974,225.91880095209854 452.83972972972975,227.77880095209855 450.97972972972974,229.63880095209856" stroke="#000000" stroke-width="1.55" fill="#000000"  />
<polygon points="461.1981081081081,231.12322225528078 463.0581081081081,229.26322225528077 464.91810810810813,231.12322225528078 463.0581081081081,232.9832222552808" stroke="#F7F7F7" stroke-width="1.55" fill="#F7F7F7"  />
<polygon points="461.1981081081081,231.12322225528078 463.0581081081081,229.26322225528077 464.91810810810813,231.12322225528078 463.0581081081081,232.9832222552808" stroke="#000000" stroke-width="1.55" fill="#000000"  />
<polygon points="473.2764864864865,234.0156947337111 475.1364864864865,232.15569473371107 476.9964864864865,234.0156947337111 475.1364864864865,235.8756947337111" stroke="#F7F7F7" stroke-width="1.55" fill="#F7F7F7"  />
<polygon points="473.2764864864865,234.0156947337111 475.1364864864865,232.15569473371107 476.9964864864865,234.0156947337111 475.1364864864865,235.8756947337111" stroke="#000000" stroke-width="1.55" fill="#000000"  />
<polygon points="485.35486486486485,236.63699791728612 487.21486486486486,234.7769979172861 489.0748648648649,236.63699791728612 487.21486486486486,238.49699791728614" stroke="#F7F7F7" stroke-width="1.55" fill="#F7F7F7"  />
<polygon points="485.35486486486485,236.63699791728612 487.21486486486486,234.7769979172861 489.0748648648649,236.63699791728612 487.21486486486486,238.49699791728614" stroke="#000000" stroke-width="1.55" fill="#000000"  />
<polygon points="497.4332432432432,239.3034959833381 499.29324324324324,237.4434959833381 501.15324324324325,239.3034959833381 499.29324324324324,241.16349598333812" stroke="#F7F7F7" stroke-width="1.55" fill="#F7F7F7"  />
<polygon points="497.4332432432432,239.3034959833381 499.29324324324324,237.4434959833381 501.15324324324325,239.3034959833381 499.29324324324324,241.16349598333812" stroke="#000000" stroke-width="1.55" fill="#000000"  />
<polygon points="509.5116216216216,242.19596846176688 511.3716216216216,240.33596846176687 513.2316216216216,242.19596846176688 511.3716216216216,244.0559684617669" stroke="#F7F7F7" stroke-width="1.55" fill="#F7F7F7"  />
<polygon points="509.5116216216216,242.19596846176688 511.3716216216216,240.33596846176687 513.2316216216216,242.19596846176688 511.3716216216216,244.0559684617669" stroke="#000000" stroke-width="1.55" fill="#000000"  />
<polygon points="521.59,245.45 523.45,243.58999999999997 525.3100000000001,245.45 523.45,247.31" stroke="#F7F7F7" stroke-width="1.55" fill="#F7F7F7"  />
<polygon points="521.59,245.45 523.45,243.58999999999997 525.3100000000001,245.45 523.45,247.31" stroke="#000000" stroke-width="1.55" fill="#000000"  />
</svg>